<?xml version="1.0" encoding="utf-8"?>
<!-- Generator: Adobe Illustrator 16.0.0, SVG Export Plug-In . SVG Version: 6.00 Build 0)  -->
<!DOCTYPE svg PUBLIC "-//W3C//DTD SVG 1.1//EN" "http://www.w3.org/Graphics/SVG/1.1/DTD/svg11.dtd">
<svg version="1.1" id="Layer_1" xmlns="http://www.w3.org/2000/svg" xmlns:xlink="http://www.w3.org/1999/xlink" x="0px" y="0px"
	 width="250.062px" height="187.057px" viewBox="0 0 250.062 187.057" enable-background="new 0 0 250.062 187.057"
	 xml:space="preserve">
<g>
	<path fill="#A8A8A8" d="M157.28,55.196H90.309c-10.567,0-14.353,2.188-14.353,12.757v60.592c0,10.566,3.784,12.756,14.353,12.756
		h66.971c10.567,0,14.352-2.188,14.352-12.756V67.953C171.632,57.385,167.848,55.196,157.28,55.196z M131.618,65.888l32.408,0.007
		l0.016,30.372l-32.424-0.024V65.888L131.618,65.888z M123.679,62.4c2.824-0.001,3.499,4.443,0,4.779
		c-0.986,0.001-2.357-0.661-2.393-2.254C121.253,63.265,122.084,62.4,123.679,62.4z M120.7,80.397l5.954,0.024l0.025,10.876
		c-0.531,0-5.449-0.014-5.979-0.014V80.397z M83.253,65.921l32.391-0.025l0.049,30.318L83.25,96.243L83.253,65.921z M83.25,130.799
		l-0.021-22.322l80.812-0.128c0,0,0.061,14.499,0.061,22.416L83.25,130.799z"/>
	<path fill="#A8A8A8" d="M126.668,44.857c0-1.651-1.338-1.396-2.987-1.396l0,0c-1.652,0-2.99-0.257-2.99,1.396v8.372
		c0,1.651,1.338,1.396,2.99,1.396l0,0c1.649,0,2.987,0.257,2.987-1.396V44.857z"/>
	<path fill="#A8A8A8" d="M125.171,22.872c0-4.954-0.669-4.187-1.495-4.187l0,0c-0.824,0-1.494-0.77-1.494,4.187v15.547
		c0,4.954,0.669,4.187,1.494,4.187l0,0c0.825,0,1.495,0.77,1.495-4.187V22.872z"/>
	<path fill="#A8A8A8" d="M124.424,0c0-2.479-0.335-2.092-0.748-2.092l0,0c-0.412,0-0.746-0.385-0.746,2.092v15.746
		c0,2.479,0.334,2.091,0.746,2.091l0,0c0.413,0,0.748,0.385,0.748-2.091V0z"/>
	<polyline fill="#A8A8A8" points="74.748,70.236 72.522,68.31 74.748,66.384 	"/>
	<polyline fill="#A8A8A8" points="74.748,74.088 72.522,72.163 74.748,70.236 	"/>
	<polyline fill="#A8A8A8" points="74.748,77.941 72.522,76.015 74.748,74.088 	"/>
	<polyline fill="#A8A8A8" points="74.748,81.793 72.522,79.868 74.748,77.941 	"/>
	<polyline fill="#A8A8A8" points="74.748,85.646 72.522,83.719 74.748,81.793 	"/>
	<polyline fill="#A8A8A8" points="74.748,89.499 72.522,87.573 74.748,85.646 	"/>
	<polyline fill="#A8A8A8" points="74.748,93.351 72.522,91.425 74.748,89.499 	"/>
	<polyline fill="#A8A8A8" points="74.748,97.204 72.522,95.277 74.748,93.351 	"/>
	<polyline fill="#A8A8A8" points="74.748,100.604 72.522,98.677 74.748,96.752 	"/>
	<polyline fill="#A8A8A8" points="74.748,104.457 72.522,102.531 74.748,100.604 	"/>
	<polyline fill="#A8A8A8" points="74.748,108.309 72.522,106.383 74.748,104.457 	"/>
	<polyline fill="#A8A8A8" points="74.748,112.162 72.522,110.235 74.748,108.309 	"/>
	<polyline fill="#A8A8A8" points="74.748,116.014 72.522,114.088 74.748,112.162 	"/>
	<polyline fill="#A8A8A8" points="74.748,119.866 72.522,117.94 74.748,116.014 	"/>
	<polyline fill="#A8A8A8" points="74.748,123.719 72.522,121.793 74.748,119.866 	"/>
	<polyline fill="#A8A8A8" points="74.748,127.573 72.522,125.646 74.748,123.719 	"/>
	<polyline fill="#A8A8A8" points="74.748,131.424 72.522,129.498 74.748,127.573 	"/>
	<polyline fill="#A8A8A8" points="172.479,70.236 174.706,68.31 172.479,66.384 	"/>
	<polyline fill="#A8A8A8" points="172.479,74.088 174.706,72.163 172.479,70.236 	"/>
	<polyline fill="#A8A8A8" points="172.479,77.941 174.706,76.015 172.479,74.088 	"/>
	<polyline fill="#A8A8A8" points="172.479,81.793 174.706,79.868 172.479,77.941 	"/>
	<polyline fill="#A8A8A8" points="172.479,85.646 174.706,83.719 172.479,81.793 	"/>
	<polyline fill="#A8A8A8" points="172.479,89.499 174.706,87.573 172.479,85.646 	"/>
	<polyline fill="#A8A8A8" points="172.479,93.351 174.706,91.425 172.479,89.499 	"/>
	<polyline fill="#A8A8A8" points="172.479,97.204 174.706,95.277 172.479,93.351 	"/>
	<polyline fill="#A8A8A8" points="172.479,100.604 174.706,98.677 172.479,96.752 	"/>
	<polyline fill="#A8A8A8" points="172.479,104.457 174.706,102.531 172.479,100.604 	"/>
	<polyline fill="#A8A8A8" points="172.479,108.309 174.706,106.383 172.479,104.457 	"/>
	<polyline fill="#A8A8A8" points="172.479,112.162 174.706,110.235 172.479,108.309 	"/>
	<polyline fill="#A8A8A8" points="172.479,116.014 174.706,114.088 172.479,112.162 	"/>
	<polyline fill="#A8A8A8" points="172.479,119.866 174.706,117.94 172.479,116.014 	"/>
	<polyline fill="#A8A8A8" points="172.479,123.719 174.706,121.793 172.479,119.866 	"/>
	<polyline fill="#A8A8A8" points="172.479,127.573 174.706,125.646 172.479,123.719 	"/>
	<polyline fill="#A8A8A8" points="172.479,131.424 174.706,129.498 172.479,127.573 	"/>
	<polygon fill="#A8A8A8" points="92.002,52.913 107.02,52.913 107.028,54.638 92.012,54.638 	"/>
	<polygon fill="#A8A8A8" points="140.317,52.913 155.334,52.913 155.344,54.638 140.326,54.638 	"/>
	<rect x="122.019" y="82.296" fill="#A8A8A8" width="3.318" height="7.036"/>
	<rect x="85.908" y="110.567" fill="#A8A8A8" width="75.474" height="17.54"/>
	<circle fill="#A8A8A8" cx="134.274" cy="68.576" r="0.797"/>
	<circle fill="#A8A8A8" cx="161.382" cy="93.557" r="0.797"/>
	<circle fill="#A8A8A8" cx="113.016" cy="93.558" r="0.797"/>
	<circle fill="#A8A8A8" cx="113.016" cy="68.576" r="0.797"/>
	<circle fill="#A8A8A8" cx="134.274" cy="93.557" r="0.797"/>
	<circle fill="#A8A8A8" cx="85.908" cy="68.576" r="0.797"/>
	<circle fill="#A8A8A8" cx="85.908" cy="93.557" r="0.797"/>
	<path fill="#A8A8A8" d="M99.515,66.715c-7.929,0-14.353,6.426-14.353,14.352c0,7.925,6.424,14.352,14.353,14.352
		c7.925,0,14.351-6.427,14.351-14.352C113.866,73.14,107.439,66.715,99.515,66.715z M99.462,86.169
		c-7.438-0.665-6.144-10.206,0.056-10.206C105.725,75.964,106.773,85.85,99.462,86.169"/>
	<path fill="#A8A8A8" d="M147.832,66.715c-7.926,0-14.352,6.426-14.352,14.352c0,7.925,6.426,14.352,14.352,14.352
		s14.353-6.427,14.353-14.352C162.183,73.14,155.756,66.715,147.832,66.715z M153.197,81.066c0,2.471-1.912,5.104-5.101,5.104
		c-7.067-0.465-6.521-10.008,0-10.206C150.498,75.812,153.197,77.98,153.197,81.066z"/>
</g>
<g>
	<text transform="matrix(1 0 0 1 67.5305 178.0569)" fill="#FFFFFF" font-family="'TimesNewRomanPSMT'" font-size="28">J</text>
	<text transform="matrix(1 0 0 1 78.5305 178.0569)" fill="#FFFFFF" font-family="'TimesNewRomanPSMT'" font-size="28">o</text>
	<text transform="matrix(1 0 0 1 92.5305 178.0569)" fill="#FFFFFF" font-family="'TimesNewRomanPSMT'" font-size="28">h</text>
	<text transform="matrix(1 0 0 1 107.5305 178.0569)" fill="#FFFFFF" font-family="'TimesNewRomanPSMT'" font-size="28">n</text>
	<text transform="matrix(1 0 0 1 122.5305 178.0569)" fill="#FFFFFF" font-family="'TimesNewRomanPSMT'" font-size="28">n</text>
	<text transform="matrix(1 0 0 1 136.531 178.0569)" fill="#FFFFFF" font-family="'TimesNewRomanPSMT'" font-size="28">y</text>
	<text transform="matrix(1 0 0 1 155.1111 178.0569)" fill="#FFFFFF" font-family="'Arial-Black'" font-size="30">5</text>
</g>
</svg>
